<svg width="64" height="64" viewBox="0 0 64 64" fill="none" xmlns="http://www.w3.org/2000/svg">
<path fill-rule="evenodd" clip-rule="evenodd" d="M16.8533 6.87199C26.9173 5.70364 37.0827 5.70364 47.1467 6.87199C51.1387 7.33599 54 10.7653 54 14.6853V56C53.9995 56.3406 53.9121 56.6754 53.746 56.9727C53.5799 57.27 53.3406 57.52 53.0508 57.699C52.761 57.8779 52.4304 57.9799 52.0901 57.9952C51.7499 58.0106 51.4114 57.9388 51.1067 57.7867L32 48.2373L12.8933 57.792C12.5882 57.9443 12.2492 58.0161 11.9085 58.0005C11.5679 57.9849 11.2368 57.8825 10.9469 57.7029C10.657 57.5233 10.4178 57.2726 10.2521 56.9746C10.0863 56.6765 9.99956 56.341 10 56V14.6853C10 10.7653 12.8613 7.33599 16.8533 6.87199Z" fill="white"/>
</svg>
